<mxfile host="app.diagrams.net" modified="2022-05-12T14:52:28.816Z" agent="5.0 (Windows NT 10.0; Win64; x64) AppleWebKit/537.36 (KHTML, like Gecko) Chrome/101.0.4951.54 Safari/537.36" etag="A6Nn-mmT7FMzfTvtuXuz" version="18.0.2" type="github">
  <diagram id="znXQW1nJpcu_wtPZKI09" name="Page-1">
    <mxGraphModel dx="691" dy="748" grid="1" gridSize="10" guides="1" tooltips="1" connect="1" arrows="1" fold="1" page="1" pageScale="1" pageWidth="827" pageHeight="1169" background="none" math="0" shadow="0">
      <root>
        <mxCell id="0" />
        <mxCell id="1" parent="0" />
        <mxCell id="AYc5HtcItQ-9JG9zhwu2-2" value="" style="rounded=0;whiteSpace=wrap;html=1;" parent="1" vertex="1">
          <mxGeometry x="100" y="40" width="609" height="990" as="geometry" />
        </mxCell>
        <mxCell id="AYc5HtcItQ-9JG9zhwu2-25" value="header" style="rounded=0;whiteSpace=wrap;html=1;fontFamily=Verdana;fontSize=30;" parent="1" vertex="1">
          <mxGeometry x="100" y="40" width="609" height="90" as="geometry" />
        </mxCell>
        <mxCell id="AYc5HtcItQ-9JG9zhwu2-26" value="&lt;font style=&quot;font-size: 25px;&quot;&gt;footer&lt;/font&gt;" style="rounded=0;whiteSpace=wrap;html=1;fontFamily=Verdana;fontSize=30;" parent="1" vertex="1">
          <mxGeometry x="100" y="970" width="609" height="60" as="geometry" />
        </mxCell>
        <mxCell id="AYc5HtcItQ-9JG9zhwu2-27" value="&lt;font style=&quot;font-size: 16px;&quot;&gt;nav&lt;/font&gt;" style="rounded=0;whiteSpace=wrap;html=1;fontFamily=Verdana;fontSize=25;" parent="1" vertex="1">
          <mxGeometry x="100" y="130" width="609" height="60" as="geometry" />
        </mxCell>
        <mxCell id="AYc5HtcItQ-9JG9zhwu2-28" value="about me" style="rounded=0;whiteSpace=wrap;html=1;fontFamily=Verdana;fontSize=16;" parent="1" vertex="1">
          <mxGeometry x="120" y="130" width="120" height="60" as="geometry" />
        </mxCell>
        <mxCell id="AYc5HtcItQ-9JG9zhwu2-29" value="work" style="rounded=0;whiteSpace=wrap;html=1;fontFamily=Verdana;fontSize=16;" parent="1" vertex="1">
          <mxGeometry x="260" y="130" width="120" height="60" as="geometry" />
        </mxCell>
        <mxCell id="AYc5HtcItQ-9JG9zhwu2-30" value="contact me" style="rounded=0;whiteSpace=wrap;html=1;fontFamily=Verdana;fontSize=16;" parent="1" vertex="1">
          <mxGeometry x="430" y="130" width="120" height="60" as="geometry" />
        </mxCell>
        <mxCell id="AYc5HtcItQ-9JG9zhwu2-31" value="resume" style="rounded=0;whiteSpace=wrap;html=1;fontFamily=Verdana;fontSize=16;" parent="1" vertex="1">
          <mxGeometry x="570" y="130" width="120" height="60" as="geometry" />
        </mxCell>
        <mxCell id="AYc5HtcItQ-9JG9zhwu2-32" value="about me" style="rounded=0;whiteSpace=wrap;html=1;fontFamily=Verdana;fontSize=16;" parent="1" vertex="1">
          <mxGeometry x="120" y="220" width="30" height="100" as="geometry" />
        </mxCell>
        <mxCell id="AYc5HtcItQ-9JG9zhwu2-33" value="work" style="rounded=0;whiteSpace=wrap;html=1;fontFamily=Verdana;fontSize=16;" parent="1" vertex="1">
          <mxGeometry x="120" y="410" width="30" height="100" as="geometry" />
        </mxCell>
        <mxCell id="AYc5HtcItQ-9JG9zhwu2-34" value="contact me" style="rounded=0;whiteSpace=wrap;html=1;fontFamily=Verdana;fontSize=16;" parent="1" vertex="1">
          <mxGeometry x="120" y="750" width="30" height="90" as="geometry" />
        </mxCell>
        <mxCell id="AYc5HtcItQ-9JG9zhwu2-35" value="resume" style="rounded=0;whiteSpace=wrap;html=1;fontFamily=Verdana;fontSize=16;" parent="1" vertex="1">
          <mxGeometry x="120" y="860" width="30" height="90" as="geometry" />
        </mxCell>
        <mxCell id="AYc5HtcItQ-9JG9zhwu2-38" value="" style="line;strokeWidth=2;html=1;fontFamily=Verdana;fontSize=16;" parent="1" vertex="1">
          <mxGeometry x="160" y="370" width="515" height="10" as="geometry" />
        </mxCell>
        <mxCell id="AYc5HtcItQ-9JG9zhwu2-40" value="" style="line;strokeWidth=2;html=1;fontFamily=Verdana;fontSize=16;" parent="1" vertex="1">
          <mxGeometry x="160" y="730" width="515" height="10" as="geometry" />
        </mxCell>
        <mxCell id="AYc5HtcItQ-9JG9zhwu2-41" value="" style="line;strokeWidth=2;html=1;fontFamily=Verdana;fontSize=16;" parent="1" vertex="1">
          <mxGeometry x="160" y="850" width="515" height="10" as="geometry" />
        </mxCell>
        <mxCell id="AYc5HtcItQ-9JG9zhwu2-42" value="" style="rounded=0;whiteSpace=wrap;html=1;fontFamily=Verdana;fontSize=16;" parent="1" vertex="1">
          <mxGeometry x="280" y="670" width="120" height="60" as="geometry" />
        </mxCell>
        <mxCell id="AYc5HtcItQ-9JG9zhwu2-43" value="" style="rounded=0;whiteSpace=wrap;html=1;fontFamily=Verdana;fontSize=16;" parent="1" vertex="1">
          <mxGeometry x="414" y="670" width="120" height="60" as="geometry" />
        </mxCell>
        <mxCell id="AYc5HtcItQ-9JG9zhwu2-44" value="" style="rounded=0;whiteSpace=wrap;html=1;fontFamily=Verdana;fontSize=16;" parent="1" vertex="1">
          <mxGeometry x="280" y="600" width="120" height="60" as="geometry" />
        </mxCell>
        <mxCell id="AYc5HtcItQ-9JG9zhwu2-45" value="" style="rounded=0;whiteSpace=wrap;html=1;fontFamily=Verdana;fontSize=16;" parent="1" vertex="1">
          <mxGeometry x="279.5" y="385" width="250" height="200" as="geometry" />
        </mxCell>
        <mxCell id="AYc5HtcItQ-9JG9zhwu2-46" value="" style="rounded=0;whiteSpace=wrap;html=1;fontFamily=Verdana;fontSize=16;" parent="1" vertex="1">
          <mxGeometry x="414" y="600" width="120" height="60" as="geometry" />
        </mxCell>
        <mxCell id="jZaJrE2Yawj12TwJCbeb-1" value="" style="ellipse;whiteSpace=wrap;html=1;aspect=fixed;" vertex="1" parent="1">
          <mxGeometry x="364.5" y="210" width="80" height="80" as="geometry" />
        </mxCell>
        <mxCell id="jZaJrE2Yawj12TwJCbeb-2" value="" style="rounded=0;whiteSpace=wrap;html=1;" vertex="1" parent="1">
          <mxGeometry x="276.5" y="300" width="256" height="60" as="geometry" />
        </mxCell>
        <mxCell id="jZaJrE2Yawj12TwJCbeb-3" value="&lt;br&gt;website&lt;br&gt;email" style="rounded=0;whiteSpace=wrap;html=1;" vertex="1" parent="1">
          <mxGeometry x="210" y="750" width="120" height="100" as="geometry" />
        </mxCell>
        <mxCell id="jZaJrE2Yawj12TwJCbeb-4" value="" style="rounded=0;whiteSpace=wrap;html=1;" vertex="1" parent="1">
          <mxGeometry x="354" y="750" width="126" height="100" as="geometry" />
        </mxCell>
      </root>
    </mxGraphModel>
  </diagram>
</mxfile>
